<svg xmlns="http://www.w3.org/2000/svg" width="1200" height="700" viewBox="0 0 1200 700">
  <rect width="1200" height="700" rx="56" fill="#f9f3ec"/>
  <rect x="40" y="40" width="1120" height="620" rx="44" fill="#fff"/>
  <text x="110" y="200" font-family="Arial" font-size="64" font-weight="700" fill="#2f5b86">Book Doctor</text>
  <text x="110" y="270" font-family="Arial" font-size="64" font-weight="700" fill="#2f5b86">Appointment</text>

  <rect x="650" y="150" width="360" height="440" rx="36" fill="#1f1f1f"/>
  <rect x="670" y="170" width="320" height="400" rx="28" fill="#f6fbff"/>
  <rect x="710" y="210" width="110" height="110" rx="14" fill="#dceefe"/>
  <circle cx="765" cy="255" r="28" fill="#f7d7c4"/>
  <rect x="710" y="340" width="240" height="16" rx="8" fill="#d7e6f2"/>
  <rect x="710" y="370" width="190" height="16" rx="8" fill="#e4eef6"/>
  <rect x="710" y="430" width="200" height="44" rx="22" fill="#4aa9b6"/>
  <text x="740" y="458" font-family="Arial" font-size="18" font-weight="700" fill="#fff">Book Appointment</text>

  <circle cx="360" cy="430" r="90" fill="#f7d7c4"/>
  <circle cx="470" cy="460" r="70" fill="#f7d7c4"/>
  <rect x="300" y="470" width="180" height="150" rx="26" fill="#f5c44d"/>
  <rect x="410" y="500" width="160" height="120" rx="22" fill="#f08b3d"/>
  <rect x="350" y="380" width="90" height="60" rx="18" fill="#2f5b86"/>
</svg>
