<svg xmlns="http://www.w3.org/2000/svg" width="800" height="520" viewBox="0 0 800 520">
  <defs>
    <linearGradient id="bg" x1="0" y1="0" x2="1" y2="1">
      <stop offset="0%" stop-color="#f6f3ee"/>
      <stop offset="100%" stop-color="#e8f3f7"/>
    </linearGradient>
  </defs>
  <rect width="800" height="520" rx="32" fill="url(#bg)"/>
  <circle cx="160" cy="150" r="90" fill="#f26430" opacity="0.18"/>
  <circle cx="610" cy="130" r="70" fill="#16697a" opacity="0.15"/>
  <rect x="130" y="190" width="540" height="250" rx="28" fill="#ffffff" stroke="#e7dac9"/>
  <rect x="190" y="250" width="420" height="22" rx="11" fill="#f3e2d2"/>
  <rect x="190" y="295" width="360" height="16" rx="8" fill="#efe5d7"/>
  <rect x="190" y="330" width="300" height="16" rx="8" fill="#efe5d7"/>
  <rect x="190" y="365" width="200" height="16" rx="8" fill="#efe5d7"/>
  <circle cx="165" cy="290" r="26" fill="#f26430"/>
  <rect x="150" y="276" width="30" height="28" rx="6" fill="#fff"/>
  <rect x="158" y="268" width="14" height="44" rx="6" fill="#fff"/>
  <rect x="120" y="215" width="120" height="20" rx="10" fill="#f26430" opacity="0.2"/>
  <text x="150" y="230" font-size="12" font-family="Arial" fill="#6b6a67">CARE PLAN</text>
</svg>
