<svg xmlns="http://www.w3.org/2000/svg" width="800" height="520" viewBox="0 0 800 520">
  <rect width="800" height="520" rx="40" fill="#f9f5f0"/>
  <circle cx="660" cy="160" r="110" fill="#f6d545"/>
  <rect x="210" y="40" width="380" height="440" rx="48" fill="#111"/>
  <rect x="228" y="58" width="344" height="404" rx="40" fill="#f8fbff"/>
  <rect x="300" y="70" width="200" height="24" rx="12" fill="#e8eef5"/>
  <rect x="260" y="120" width="280" height="110" rx="20" fill="#0f7c8a"/>
  <rect x="280" y="140" width="140" height="16" rx="8" fill="#ffffff" opacity="0.9"/>
  <rect x="280" y="164" width="170" height="12" rx="6" fill="#ffffff" opacity="0.7"/>
  <rect x="260" y="250" width="280" height="70" rx="18" fill="#ffffff" stroke="#e6ecf2"/>
  <rect x="280" y="270" width="120" height="12" rx="6" fill="#d9e3ec"/>
  <rect x="260" y="340" width="280" height="70" rx="18" fill="#ffffff" stroke="#e6ecf2"/>
  <circle cx="300" cy="375" r="20" fill="#8fd3e8"/>
  <rect x="330" y="360" width="120" height="12" rx="6" fill="#d9e3ec"/>
  <rect x="330" y="380" width="90" height="10" rx="5" fill="#e6edf3"/>
</svg>
